<svg width="61" height="62" viewBox="0 0 61 62" fill="none" xmlns="http://www.w3.org/2000/svg"> <path d="M27.4705 45.1425C22.1353 49.7156 17.436 46.6669 15.9116 45.1425C12.7367 41.9676 12.7367 36.7586 15.9116 33.5837L31.7911 17.7042C32.2985 17.1969 32.2985 16.4347 31.7911 15.925L24.0432 8.177C23.5358 7.66968 22.7737 7.66968 22.2639 8.177L6.38445 23.9303C-2.12815 32.4404 -2.12815 46.1596 6.38445 54.6698C14.8946 63.1799 28.6138 63.1799 37.1264 54.6698L53.0058 38.7903C53.5132 38.2829 53.5132 37.5208 53.0058 37.011L45.1268 29.2655C44.6195 28.7582 43.8573 28.7582 43.3476 29.2655L27.4705 45.1425ZM23.1523 10.8446L29.1235 16.8158L25.6937 20.2456L19.7225 14.2744L23.1523 10.8446ZM35.2185 52.893C27.7229 60.3885 15.6568 60.3885 8.16123 52.893C0.665685 45.3974 0.665685 33.3313 8.16123 25.8357L17.9433 16.0536L23.9145 22.0248L14.1324 31.8045C9.94045 35.9964 9.94045 42.7298 14.1324 46.9218C18.3244 51.1137 25.0578 51.1137 29.2497 46.9218L39.0318 37.1397L45.003 43.1109L35.2185 52.893ZM46.7798 41.3317L40.8086 35.3605L44.2384 31.9307L50.2096 37.9019L46.7798 41.3317Z" fill="#135359"></path> <path d="M48.5568 30.1539C48.8117 30.2802 49.5739 30.6612 50.3361 29.6466L53.8921 23.1681C54.2732 22.5321 54.0183 21.77 53.3848 21.3889C52.7488 21.0078 51.9866 21.2626 51.6055 21.8962L48.0495 28.3747C47.6684 29.0107 47.9233 29.7728 48.5568 30.1539Z" fill="#135359"></path> <path d="M60.879 28.7558C60.4979 28.1199 59.7358 27.8674 59.0998 28.2485L52.6213 31.8045C51.9853 32.1856 51.7329 32.9478 52.114 33.5837C52.3688 33.9648 53.0024 34.4721 53.8932 34.0911L60.3717 30.535C61.0053 30.154 61.1315 29.3918 60.879 28.7558Z" fill="#135359"></path> <path d="M27.4709 8.93917C27.7258 9.06541 28.6142 9.32026 29.2501 8.43185L32.8061 1.95335C33.061 1.31739 32.8061 0.555216 32.2988 0.174128C31.6629 -0.0783416 30.9007 0.0478931 30.5196 0.683835L26.9636 7.16233C26.5825 7.92451 26.835 8.68668 27.4709 8.93918V8.93917Z" fill="#135359"></path> <path d="M31.0256 12.4974C31.2804 12.8785 31.914 13.3858 32.8048 13.0048L39.2833 9.44874C39.9193 9.06766 40.1717 8.30548 39.7906 7.66952C39.4096 7.03356 38.6474 6.78113 38.0114 7.1622L31.5329 10.7182C30.8993 11.0993 30.6445 11.8615 31.0256 12.4974Z" fill="#135359"></path> </svg>