<svg width="49" height="61" viewBox="0 0 49 61" fill="none" xmlns="http://www.w3.org/2000/svg"> <path d="M14.9957 0.0013462C14.1017 0.0764831 13.2805 0.446397 12.6835 1.18625C11.7168 2.36828 11.7168 4.21784 12.835 5.40268L12.0138 6.21767C11.7167 6.07029 11.4168 5.9229 11.0441 5.9229C10.5228 5.9229 10.0744 6.14542 9.70162 6.51534L7.09248 9.10473C6.64404 8.80995 6.05002 8.80995 5.60155 9.17987L3.06815 11.6941C2.61971 12.1391 2.61971 12.7287 2.99244 13.1738L2.09848 14.061L2.02568 16.5723C-0.0622285 20.5662 -0.58346 25.0803 0.683239 29.4438C0.758949 29.9611 1.13168 30.331 1.65294 30.6287C2.10139 30.9235 2.62265 30.9235 3.21962 30.7761L4.41356 30.4062C4.71058 30.3311 5.01052 30.1114 5.23477 29.9611C5.53179 29.6664 5.83172 29.1462 5.83172 28.6289V26.9267C5.83172 24.4846 5.83172 23.4501 7.84389 21.4531L9.25908 20.0486L18.8741 29.5909C17.7559 31.2931 17.159 33.2149 17.159 35.3622C17.159 38.1741 18.3529 40.9109 20.2893 42.9077C20.5863 43.2025 20.5863 43.6475 20.2893 43.9423L12.9831 51.1932C12.5347 51.6382 12.5347 52.3781 12.9831 52.748C13.4316 53.193 14.1771 53.193 14.5498 52.748L21.856 45.4971C23.0499 44.3122 23.0499 42.4626 21.856 41.2807C20.2166 39.6536 19.3954 37.5815 19.3954 35.2869C19.3954 32.9922 20.2166 30.9231 21.856 29.2931L26.4045 24.779C27.15 24.0391 28.4167 24.0391 29.1622 24.779C29.9076 25.5188 29.9076 26.7759 29.1622 27.5157L26.1803 30.475L23.5683 33.0702C22.0016 34.625 22.0773 37.0641 23.5683 38.5437C24.1652 39.1362 24.9107 39.5061 25.6562 39.5783C25.3591 40.8354 25.7319 42.2429 26.6986 43.2023C27.6683 44.1647 29.0835 44.5346 30.3502 44.2369C30.4987 45.0519 30.7987 45.7917 31.3927 46.309C31.9139 46.8263 32.5109 47.124 33.1079 47.2713C34.5231 48.6758 35.8655 49.8607 36.9837 50.8953C35.1958 52.2276 32.6594 52.1524 31.02 50.5254L30.1988 49.7104L20.9587 59.1114C20.5102 59.5564 20.5102 60.2963 20.9587 60.6662C21.4071 61.1113 22.1526 61.1113 22.5254 60.6662L30.3528 52.898C32.8862 54.6724 36.3165 54.5251 38.7013 52.453C39.4467 53.0454 40.0437 53.5627 40.2679 53.7853L42.3558 55.5597L47.7984 50.1583C48.6196 49.3433 49.065 48.1614 48.9923 47.0516C48.9166 45.9419 48.3953 44.9795 47.4256 44.3149C47.3499 44.2397 47.1286 44.1675 47.0529 44.0201C49.2893 40.9134 49.065 36.6218 46.2317 33.8097L40.1194 27.8911C37.883 25.6716 34.6042 25.0792 31.9193 26.0415C31.8436 25.0792 31.4708 24.1168 30.7253 23.377C29.0859 21.75 26.4768 21.75 24.8373 23.377L23.8676 24.3393L14.4009 14.8688L16.2646 13.0192C16.6374 12.6493 16.7859 12.2043 16.7859 11.687C16.7859 11.3922 16.7102 11.0945 16.4888 10.7998L17.31 9.98477C18.504 11.0945 20.3677 11.1697 21.5586 10.1322C22.2284 9.53972 22.6768 8.72767 22.7526 7.83751C22.8283 6.95031 22.4555 6.06311 21.7829 5.39549L17.3858 1.03169C16.7859 0.294755 15.8919 0 14.9951 0L14.9957 0.0013462ZM46.8294 47.2748C46.9051 47.7199 46.6809 48.2372 46.3082 48.6071L42.2809 52.601L41.8325 52.2311C41.0113 51.5664 38.8506 49.7169 36.1657 47.1275C36.4627 46.9049 36.7627 46.6824 37.0597 46.4628L37.2839 46.2403C37.5081 46.7576 37.7324 47.2026 38.2536 47.7199C39.8203 49.2747 42.2779 49.1996 43.7689 47.7199L45.7811 45.723C45.9296 45.8704 46.2295 46.0177 46.378 46.168C46.5294 46.4628 46.8294 46.8327 46.8294 47.2749L46.8294 47.2748ZM38.5532 29.3718L44.6655 35.4378C46.9019 37.6572 46.9019 41.209 44.6655 43.5004L41.9806 46.165C41.3836 46.7574 40.2654 46.7574 39.6684 46.165C39.0715 45.5725 39.0715 44.4628 39.6684 43.8703L42.3533 41.2057C42.8018 40.7607 42.8018 40.0208 42.3533 39.6509C41.9049 39.2059 41.1594 39.2059 40.7866 39.6509L35.4955 44.9078C34.8986 45.5002 33.7804 45.5002 33.1834 44.9078C32.5864 44.3153 32.5864 43.2056 33.1834 42.6131L38.5502 37.287C38.9986 36.8419 38.9986 36.102 38.5502 35.7321C38.1017 35.2871 37.3562 35.2871 36.9835 35.7321L30.7955 41.8733C30.1986 42.4657 29.0803 42.4657 28.4106 41.7982C27.8137 41.2057 27.8137 40.096 28.4106 39.5035L34.5986 33.3623C35.047 32.9173 35.047 32.1774 34.5986 31.8075C34.1501 31.3625 33.4046 31.3625 33.0319 31.8075L27.6651 37.1337C27.0682 37.7261 25.95 37.7261 25.353 37.1337C24.756 36.5412 24.756 35.4315 25.353 34.839L30.7198 29.5129C32.7378 27.1518 36.3166 27.1518 38.5531 29.3713L38.5532 29.3718ZM22.3013 25.7478L20.2134 27.8199L10.822 18.4219L12.9099 16.3498L22.3013 25.7478ZM20.2891 6.95469C20.5133 7.17721 20.5861 7.39974 20.5861 7.69452C20.5861 7.98929 20.4376 8.28696 20.2134 8.35921C19.765 8.65399 19.2437 8.65398 18.871 8.28407L18.7225 8.13668C18.0527 7.47199 16.8588 7.47199 16.1891 8.13668L14.8466 9.39668C14.4739 9.7666 14.3254 10.2117 14.2497 10.729C14.2497 11.0237 14.3254 11.3214 14.5467 11.6913L6.19819 19.9767C3.58905 22.5661 3.58906 24.3405 3.51332 26.9299V28.2621L2.76785 28.4847C1.79814 24.7104 2.3194 20.7919 4.11028 17.3872L4.186 17.1647L4.26171 14.9452L11.0467 8.21163C11.3437 8.35902 11.6436 8.5064 11.9406 8.5064C12.4619 8.5064 12.9103 8.35901 13.2831 7.9891L14.6255 6.65682C15.2953 5.99213 15.2953 4.80725 14.6255 4.14259L14.477 3.9952C14.1042 3.62529 14.0285 3.03283 14.4013 2.66292C14.6255 2.44039 14.8497 2.29301 15.071 2.29301C15.3681 2.29301 15.5923 2.36814 15.8165 2.58778L20.2891 6.95469Z" fill="#135359"></path> </svg>