<svg width="100%" height="100%" viewBox="0 0 52 51" fill="none" xmlns="http://www.w3.org/2000/svg"> <path d="M3.30575 18.3429C3.20579 18.2561 3.10995 18.1713 3.01424 18.0847C3.00901 18.0795 3.00345 18.0742 2.99783 18.069V18.0686L2.95007 18.0241C1.15322 16.3504 0.15 14.4377 0.15 12.3644C0.15 8.86634 3.01121 5.81338 7.71227 3.62659C12.404 1.44413 18.8812 0.15 26 0.15C33.1188 0.15 39.596 1.44414 44.2877 3.62661C48.9888 5.8134 51.85 8.86637 51.85 12.3644C51.85 14.438 50.8468 16.3507 49.0499 18.0241L49.0022 18.0686V18.069C48.9965 18.0742 48.991 18.0796 48.9857 18.0848C48.89 18.1714 48.7942 18.2561 48.6942 18.3429L48.6927 18.3442C42.0168 24.304 37.4893 29.0269 35.1487 32.4622C32.7686 35.9522 30.1411 41.7869 27.3003 49.9191L27.3003 49.9192C26.8677 51.1603 25.1318 51.1603 24.6992 49.9192L24.6992 49.9191C21.8587 41.7864 19.2311 35.952 16.8509 32.4622C14.5444 29.077 10.1153 24.442 3.59969 18.6061H3.60864L3.30575 18.3429ZM3.44798 14.3131L3.55239 14.5009L3.69268 14.3382C5.57858 12.1509 8.68705 10.3414 12.5661 9.07889C16.4426 7.81722 21.0767 7.10588 25.9999 7.10588C30.9231 7.10588 35.5573 7.81726 39.4339 9.07895C43.313 10.3415 46.4214 12.1509 48.3071 14.3382L48.4474 14.5009L48.5518 14.3131C48.9036 13.6805 49.0908 13.0276 49.0908 12.3642C49.0908 11.115 48.4245 9.90217 47.2538 8.79312C46.0824 7.68342 44.3935 6.66474 42.313 5.79955C38.1513 4.06881 32.3959 2.94102 25.9999 2.94102C19.6039 2.94102 13.8485 4.06887 9.68679 5.79963C7.60638 6.66483 5.91739 7.68352 4.74601 8.79321C3.57532 9.90225 2.90908 11.115 2.90908 12.3642C2.90908 13.0276 3.09624 13.6805 3.44798 14.3131ZM39.1906 20.0265L39.5433 19.9222L39.2183 19.7501C35.7859 17.9321 31.0708 16.8509 25.9999 16.8509C20.9291 16.8509 16.214 17.9321 12.7815 19.7501L12.4565 19.9222L12.8092 20.0265C16.6436 21.16 21.2062 21.7875 25.9999 21.7875C30.7938 21.7875 35.3561 21.16 39.1906 20.0265ZM9.20235 18.5794L9.26515 18.6656C13.234 15.7769 19.3609 14.0597 25.9999 14.0597C32.6389 14.0597 38.7655 15.7769 42.7347 18.6656L42.805 18.7169L42.8844 18.6812C44.2495 18.0679 45.4384 17.3787 46.4085 16.629L46.5277 16.5368L46.435 16.418C44.965 14.5343 42.189 12.9062 38.627 11.7488C35.0603 10.5899 30.687 9.8967 26.0003 9.8967C21.3136 9.8967 16.9402 10.5899 13.3735 11.7488C9.81146 12.9062 7.03549 14.5342 5.56567 16.418L5.47297 16.5368L5.59221 16.629C6.50622 17.3354 7.61441 17.988 8.88121 18.574L8.7159 18.6944H9.17688H9.17771L9.20235 18.5794ZM26.1559 24.5768V24.5768L26.1519 24.5769C26.1145 24.5779 26.0959 24.5784 26.0773 24.5786C26.0581 24.5789 26.039 24.5789 25.9995 24.5789C25.9621 24.5789 25.9434 24.5789 25.9248 24.5787C25.9057 24.5784 25.8865 24.5779 25.847 24.5769V24.5769L25.8435 24.5768C21.0394 24.5646 16.4747 23.9503 12.5627 22.8562L12.0155 22.7031L12.4158 23.1063C15.415 26.1267 17.6483 28.7135 19.1219 30.8765L19.1219 30.8765C21.2406 33.9837 23.4802 38.6852 25.8592 45.0116L25.9996 45.3849L26.14 45.0116C28.5192 38.6852 30.7588 33.9835 32.8773 30.8765L32.8773 30.8765C34.3508 28.7137 36.584 26.1267 39.5834 23.1063L39.9838 22.7031L39.4366 22.8562C35.5247 23.9502 30.9617 24.5645 26.1559 24.5768ZM26.1559 24.7268C26.1178 24.7279 26.0985 24.7284 26.0792 24.7286C26.0594 24.7289 26.0396 24.7289 25.9995 24.7289C25.9223 24.7289 25.9223 24.7289 25.8431 24.7268H26.1559Z" fill="#135359" stroke="#F9DA73" stroke-width="0.3"></path> </svg>