<svg width="13" height="21" viewBox="0 0 13 21" fill="none" xmlns="http://www.w3.org/2000/svg"> <path fill-rule="evenodd" clip-rule="evenodd" d="M9.73033 21H2.60952V13.2461H0V6.22333H2.60952V5.99438C2.60952 4.28781 3.14025 2.73326 4.28193 1.60494C5.4174 0.482756 6.93703 0 8.49662 0C9.67821 0 10.7143 0.0868036 11.0853 0.135022L12.8276 0.361434V6.22333H12.9971L12.0903 13.2461H9.73033V21ZM7.73088 6.22333C7.74417 5.38703 8.00628 4.82265 9.22828 4.82265L10.8276 4.82199V2.11835C10.551 2.0824 9.60161 2 8.49662 2C6.18921 2 4.60952 3.40842 4.60952 5.99438V8.22333H2V11.2461H4.60952V19H7.73033V11.2461H10.332L10.7223 8.22333H7.73033V6.29375C7.73033 6.27007 7.73051 6.24659 7.73088 6.22333Z" fill="#025157"></path> </svg>