<svg width="20" height="20" viewBox="0 0 20 20" fill="none" xmlns="http://www.w3.org/2000/svg"> <path d="M2.57143 0C1.16183 0 0 1.16183 0 2.57143V17.4286C0 18.8382 1.16183 20 2.57143 20H17.4286C18.8382 20 20 18.8382 20 17.4286V2.57143C20 1.16183 18.8382 0 17.4286 0H2.57143ZM2.57143 1.71429H17.4286C17.9185 1.71429 18.2857 2.08149 18.2857 2.57143V9.14286H14.7769C14.3673 6.87834 12.3784 5.14286 10 5.14286C7.62157 5.14286 5.63286 6.87834 5.22314 9.14286H1.71429V2.57143C1.71429 2.08149 2.08149 1.71429 2.57143 1.71429ZM15.7143 3.42857C15.0826 3.42857 14.5714 3.93974 14.5714 4.57143C14.5714 5.20311 15.0826 5.71429 15.7143 5.71429C16.346 5.71429 16.8571 5.20311 16.8571 4.57143C16.8571 3.93974 16.346 3.42857 15.7143 3.42857ZM10 6.85714C11.7455 6.85714 13.1429 8.25446 13.1429 10C13.1429 11.7455 11.7455 13.1429 10 13.1429C8.25446 13.1429 6.85714 11.7455 6.85714 10C6.85714 8.25446 8.25446 6.85714 10 6.85714ZM1.71429 10.8571H5.22314C5.6294 13.1261 7.61823 14.8571 10 14.8571C12.3818 14.8571 14.3706 13.1261 14.7769 10.8571H18.2857V17.4286C18.2857 17.9185 17.9185 18.2857 17.4286 18.2857H2.57143C2.08149 18.2857 1.71429 17.9185 1.71429 17.4286V10.8571Z" fill="#135359"></path> </svg>