<svg width="21" height="21" viewBox="0 0 21 21" fill="none" xmlns="http://www.w3.org/2000/svg"> <path fill-rule="evenodd" clip-rule="evenodd" d="M7.8444 3.79199V3.81496C7.8444 4.24056 7.77657 4.66234 7.64128 5.06267H7.72537V20.74H0.0954545V5.06267H0.201898C0.0703321 4.67173 0 4.25193 0 3.81496C0 2.79067 0.389299 1.80704 1.1397 1.08308C1.88985 0.359368 2.88957 0 3.93399 0C4.98497 0 5.98252 0.364179 6.72689 1.10175C7.46316 1.83131 7.82156 2.79746 7.84387 3.76904L7.8444 3.79199ZM2.47865 5.06267C2.17205 4.73753 2 4.29843 2 3.81496C2 2.78816 2.7642 2 3.93399 2C5.10416 2 5.82082 2.78816 5.8444 3.81496C5.8444 4.29837 5.67232 4.7375 5.35758 5.06267C5.01952 5.41193 4.51687 5.62972 3.88608 5.62972C3.29265 5.62972 2.80802 5.41195 2.47865 5.06267ZM2.09545 18.7398L5.72537 18.74V7.06267H2.09545V18.7398Z" fill="#025157"></path> <path fill-rule="evenodd" clip-rule="evenodd" d="M5.70996 5.06278H12.7583L12.7634 5.11286C13.366 4.91749 14.0442 4.7998 14.7993 4.7998C16.4549 4.7998 18.0805 5.36806 19.2714 6.69237C20.4419 7.99404 20.9782 9.78702 20.9782 11.8385V20.7401H5.89755V10.788C5.89755 9.37591 5.85155 8.19292 5.80452 7.15315L5.70996 5.06278ZM12.976 7.17161C12.3069 7.46762 11.81 7.89756 11.4749 8.29967C11.3656 8.43086 11.2735 8.55909 11.1983 8.67874C11.1967 8.68137 11.195 8.68401 11.1934 8.68663H11.1219L10.9542 7.06278H7.80247C7.82991 7.66928 7.85734 8.33133 7.87564 9.06278C7.88905 9.59876 7.89755 10.172 7.89755 10.788V18.7401H11.5275V12.006C11.5275 11.6716 11.5514 11.3371 11.6473 11.0985C11.7016 10.9601 11.7702 10.8207 11.8538 10.6866C12.0707 10.3388 12.3883 10.0268 12.8176 9.86159C13.0223 9.7828 13.2525 9.73739 13.5094 9.73739C14.8229 9.73739 15.3483 10.7638 15.3483 12.2684V18.7401H18.9782V11.8385C18.9782 8.39989 17.1872 6.7998 14.7993 6.7998C14.0895 6.7998 13.4833 6.94723 12.976 7.17161Z" fill="#025157"></path> </svg>