<svg width="24" height="20" viewBox="0 0 24 20" fill="none" xmlns="http://www.w3.org/2000/svg"> <path d="M8.57131 19.71C4.11604 19.71 0.475736 17.5703 0.415891 17.5346C0.0674662 17.3246 -0.0858991 16.8988 0.0481097 16.5146C0.183609 16.1319 0.564804 15.8892 0.972785 15.9503C3.38644 16.2734 5.06593 15.5125 5.96705 14.9109C3.73503 13.2194 -1.25904 8.44874 1.80529 1.37283C1.93185 1.08099 2.2103 0.882935 2.52595 0.857624C2.83567 0.836778 3.14835 0.985679 3.31809 1.25371C3.40892 1.39666 5.55903 4.62928 10.9284 5.30683C10.9403 2.37797 13.3257 0 16.2562 0C17.5636 0 18.795 0.469046 19.7703 1.32968C21.1789 1.17929 22.2897 1.14802 22.3403 1.14504C22.4564 1.14653 22.5666 1.16142 22.6679 1.20014C22.857 1.13015 23.0684 1.12569 23.2739 1.20163C23.7161 1.36839 23.9395 1.86424 23.7727 2.30645C23.6089 2.74271 22.8182 4.73054 21.7447 5.7475C22.0127 8.22074 21.3992 11.8567 17.4327 15.9411C14.6275 18.8283 11.4321 19.7098 8.57174 19.7098L8.57131 19.71ZM4.52581 17.4244C7.60059 18.3416 12.3164 18.7451 16.2011 14.7472C19.9474 10.8877 20.324 7.59847 19.9802 5.5214C19.9236 5.17595 20.0829 4.82902 20.3837 4.64735C20.7708 4.41506 21.2443 3.66908 21.6344 2.89779C21.1148 2.92906 20.3718 2.98564 19.5677 3.07945C19.3041 3.10625 19.0376 3.01691 18.85 2.82334C18.1591 2.10862 17.2359 1.71555 16.2547 1.71555C14.2639 1.71555 12.6423 3.33706 12.6423 5.32935C12.6423 5.58993 12.6677 5.83858 12.7198 6.0679C12.7778 6.33145 12.7094 6.60544 12.5351 6.8109C12.3594 7.01638 12.0944 7.12806 11.8308 7.11168C7.09576 6.82579 4.2712 4.76652 2.8955 3.39663C1.00895 10.0673 7.51583 13.9314 7.81086 14.1025C8.03272 14.2306 8.18758 14.4539 8.22929 14.7085C8.26949 14.9632 8.19504 15.2223 8.02381 15.4158C7.9568 15.4962 6.7656 16.8065 4.52615 17.4245L4.52581 17.4244Z" fill="#135359"></path> </svg>